<svg xmlns="http://www.w3.org/2000/svg" viewBox="0 0 189.21 58.07"><defs><style>.cls-1{fill:#fff;}</style></defs><title>default-svg</title><g id="Слой_2" data-name="Слой 2"><g id="Слой_1-2" data-name="Слой 1"><path class="cls-1" d="M54,44.5l6,6.09L54,56.5V52.9A12.54,12.54,0,0,0,44,58c.82-4,3.7-8.89,10-9.73ZM2,2H5V0H0V5H2ZM5,12H2V9H0v5H5ZM13,2h3V5h2V0H13Zm3,10H13v2h5V9H16Zm41,2h2V11h3V9H57ZM47,14h2V9H44v2h3ZM49,0H47V3H44V5h5ZM59,0H57V5h5V3H59ZM14.66,43.93,9,49.59,3.34,43.93,1.93,45.34,7.59,51,1.93,56.66l1.41,1.41L9,52.41l5.66,5.66,1.41-1.41L10.41,51l5.66-5.66ZM97,39.5l3,3.5H90v2h10l-3,3.5L98.79,50,104,44l-5.21-6Zm44,0L139.22,38,134,44l5.22,6L141,48.5,138,45h10V43H138Zm2.29-27.79L146.54,15,148,13.54l-3.25-3.25Zm-10-5.21a6.25,6.25,0,1,1,6.25,6.25A6.26,6.26,0,0,1,133.25,6.5Zm1.5,0a4.75,4.75,0,1,0,4.75-4.75A4.76,4.76,0,0,0,134.75,6.5ZM142,6h-5V7h5ZM99.29,11.71,102.54,15,104,13.54l-3.25-3.25Zm-10-5.21a6.25,6.25,0,1,1,6.25,6.25A6.26,6.26,0,0,1,89.25,6.5Zm1.5,0A4.75,4.75,0,1,0,95.5,1.75,4.76,4.76,0,0,0,90.75,6.5ZM95,9l1,0,0-2h2V6H96l0-2L95,4l0,2H93V7h2Zm85.83,29.1L186.84,44,180.79,50l1.13,1.13,7.3-7.07L181.92,37ZM189.21,2,188.08.91,180.79,8l7.3,7.07,1.13-1.13L183.16,8Z"/></g></g></svg>