<?xml version="1.0" encoding="UTF-8"?>
<!DOCTYPE svg PUBLIC "-//W3C//DTD SVG 1.1//EN" "http://www.w3.org/Graphics/SVG/1.1/DTD/svg11.dtd">
<svg xmlns="http://www.w3.org/2000/svg">
<symbol id="cross" viewBox="0 0 14.1 14.1">
	<style>
		.st0{fill:#fff}
	</style>
	<path d="M12.7 0L7.1 5.7 1.4 0 0 1.4l5.7 5.7L0 12.7l1.4 1.4 5.7-5.6 5.6 5.6 1.4-1.4-5.6-5.6 5.6-5.7z" class="st0"/>
</symbol>
<symbol id="left" viewBox="0 0 8.4 14.2">
	<style>
		.st0{fill:#fff}
	</style>
	<path d="M8.4 1.1L7.3 0 0 7.1l7.3 7.1L8.4 13l-6-5.9z" class="st0"/>
</symbol>
<symbol id="loop" viewBox="0 0 14.8 14.8">
	<style>
		.st0{fill:#fff}
	</style>
	<path d="M10 11.5l3.3 3.3 1.5-1.5-3.3-3.3zM0 6.2C0 2.8 2.8 0 6.3 0s6.2 2.8 6.2 6.2-2.8 6.2-6.2 6.2C2.8 12.5 0 9.7 0 6.2c0 .1 0 .1 0 0z" class="st0"/>
	<path d="M1.5 6.2c0 2.6 2.1 4.7 4.8 4.7 2.6.1 4.7-2 4.7-4.7S8.9 1.5 6.3 1.5c-2.7 0-4.8 2.1-4.8 4.7z" class="st0"/>
	<path d="M5.8 8.8h1v-2h2v-1h-2v-2h-1v2h-2v1h2z" class="st0"/>
</symbol>
<symbol id="right" viewBox="0 0 8.4 14.1">
	<style>
		.st0{fill:#fff}
	</style>
	<path d="M0 1.1L6.1 7 0 13l1.1 1.1 7.3-7L1.1 0z" class="st0"/>
</symbol>
<symbol id="share" viewBox="0 0 16 13.5">
	<style>
		.st0{fill:#fff}
	</style>
	<path d="M10 0l6 6.1-6 5.9V8.4c-4 0-7.7 1.9-10 5.1.8-4 3.7-8.9 10-9.7V0z" class="st0"/>
</symbol>
<symbol id="zoom-in" viewBox="0 0 18 14">
	<style>
		.st0{fill:#fff}
	</style>
	<path d="M2 2h3V0H0v5h2zM5 12H2V9H0v5h5zM13 2h3v3h2V0h-5zM16 12h-3v2h5V9h-2z" class="st0"/>
</symbol>
<symbol id="zoom-out" viewBox="0 0 14.8 14.8">
	<style>
		.st0{fill:#fff}
	</style>
	<path d="M10 11.5l3.3 3.3 1.5-1.5-3.3-3.3zM0 6.2C0 2.8 2.8 0 6.3 0s6.2 2.8 6.2 6.2-2.8 6.2-6.2 6.2C2.8 12.5 0 9.7 0 6.2c0 .1 0 .1 0 0z" class="st0"/>
	<path d="M1.5 6.2c0 2.6 2.1 4.8 4.8 4.8S11 8.9 11 6.2 8.9 1.5 6.3 1.5 1.5 3.6 1.5 6.2z" class="st0"/>
	<path d="M3.8 5.8h5v1h-5z" class="st0"/>
</symbol>
</svg>